<svg width="22" height="22" viewBox="0 0 22 22" fill="none" xmlns="http://www.w3.org/2000/svg">
<g clip-path="url(#clip0_61_2104)">
<path d="M21.5789 9.00195H11.2191V13.2602H17.1402C16.8781 14.6309 16.1004 15.791 14.9316 16.5688C13.9519 17.2305 12.7015 17.6301 11.2234 17.6301C8.3617 17.6301 5.93396 15.7008 5.06169 13.1012H5.0488L5.06169 13.0926C4.84255 12.4309 4.71365 11.7305 4.71365 11.0043C4.71365 10.2781 4.84255 9.57344 5.06169 8.91602C5.92966 6.31641 8.3617 4.38711 11.2234 4.38711C12.8433 4.38711 14.2828 4.9457 15.4344 6.02852L18.584 2.87891C16.6719 1.09141 14.1883 0 11.2191 0C6.91794 0 3.20974 2.4707 1.40076 6.07148C0.648804 7.54961 0.219116 9.22109 0.219116 11C0.219116 12.7789 0.648804 14.4504 1.40076 15.9285V15.9371C3.20974 19.5293 6.91794 22 11.2191 22C14.1883 22 16.6804 21.0203 18.498 19.3402C20.5777 17.4195 21.7765 14.6008 21.7765 11.2492C21.7808 10.4715 21.7121 9.71953 21.5789 9.00195Z" fill="#FC4C53"/>
<path d="M5.06169 13.1004H5.0488L5.06169 13.0918C4.84255 12.4301 4.71365 11.7297 4.71365 11.0035C4.71365 10.273 4.84255 9.57266 5.06169 8.91524C5.61169 7.26953 6.78904 5.89883 8.29724 5.1082C7.26169 3.7332 5.94255 2.74922 4.46873 2.32812C3.19255 3.3293 2.13552 4.60117 1.39646 6.06641C0.648804 7.54883 0.219116 9.22031 0.219116 10.9992C0.219116 12.7781 0.648804 14.4496 1.40076 15.9277V15.9363C2.61677 18.3426 4.68787 20.2461 7.21443 21.2387C8.27146 20.2719 9.13513 18.9613 9.7324 17.4273C7.54529 16.8945 5.77498 15.2316 5.06169 13.1004Z" fill="url(#paint0_radial_61_2104)"/>
<path d="M1.48242 16.0868C3.31719 19.5974 6.97813 21.9993 11.2191 21.9993C14.1883 21.9993 16.6805 21.0196 18.498 19.3396C20.5777 17.4189 21.7766 14.6001 21.7766 11.2486C21.7766 11.0552 21.7594 10.8747 21.7508 10.6857C19.2156 9.85207 16.3109 9.5384 13.2773 9.91652C12.5727 10.0025 11.8938 10.1357 11.2234 10.2903V13.2595H17.1445C16.8824 14.6302 16.1047 15.7903 14.9359 16.5681C13.9563 17.2298 12.7059 17.6294 11.2277 17.6294C8.36602 17.6294 5.93828 15.7001 5.06602 13.1005H5.05312L5.06602 13.0919C5.04453 13.0275 5.03594 12.9587 5.01445 12.8943C3.61797 13.8095 2.42773 14.8923 1.48242 16.0868Z" fill="url(#paint1_radial_61_2104)"/>
<path d="M18.498 19.3387C20.5777 17.418 21.7765 14.5992 21.7765 11.2477C21.7765 10.4656 21.7078 9.71797 21.5746 8.99609H11.2191V13.2543H17.1402C16.8781 14.625 16.1004 15.7852 14.9316 16.5629C14.2269 17.0355 13.3804 17.3707 12.4136 17.5211L16.0961 20.9457C16.9898 20.5289 17.7976 19.9875 18.498 19.3387Z" fill="url(#paint2_linear_61_2104)"/>
</g>
<defs>
<radialGradient id="paint0_radial_61_2104" cx="0" cy="0" r="1" gradientUnits="userSpaceOnUse" gradientTransform="translate(2.86637 12.5717) scale(7.75527 10.4685)">
<stop offset="0.368" stop-color="#FFCF09"/>
<stop offset="0.718" stop-color="#FFCF09" stop-opacity="0.7"/>
<stop offset="1" stop-color="#FFCF09" stop-opacity="0"/>
</radialGradient>
<radialGradient id="paint1_radial_61_2104" cx="0" cy="0" r="1" gradientTransform="matrix(15.6435 -1.95395 -1.48239 -11.8722 14.7585 21.7879)" gradientUnits="userSpaceOnUse">
<stop offset="0.383" stop-color="#34A853"/>
<stop offset="0.706" stop-color="#34A853" stop-opacity="0.7"/>
<stop offset="1" stop-color="#34A853" stop-opacity="0"/>
</radialGradient>
<linearGradient id="paint2_linear_61_2104" x1="22.404" y1="4.98002" x2="10.9934" y2="18.993" gradientUnits="userSpaceOnUse">
<stop offset="0.671" stop-color="#4285F4"/>
<stop offset="0.885" stop-color="#4285F4" stop-opacity="0"/>
</linearGradient>
<clipPath id="clip0_61_2104">
<rect width="22" height="22" fill="white"/>
</clipPath>
</defs>
</svg>
